<?xml version="1.0" encoding="UTF-8" standalone="no"?>
<!-- Created with Inkscape (http://www.inkscape.org/) -->

<svg
   xmlns:dc="http://purl.org/dc/elements/1.1/"
   xmlns:cc="http://creativecommons.org/ns#"
   xmlns:rdf="http://www.w3.org/1999/02/22-rdf-syntax-ns#"
   xmlns:svg="http://www.w3.org/2000/svg"
   xmlns="http://www.w3.org/2000/svg"
   xmlns:sodipodi="http://sodipodi.sourceforge.net/DTD/sodipodi-0.dtd"
   xmlns:inkscape="http://www.inkscape.org/namespaces/inkscape"
   width="39.749519mm"
   height="39.749695mm"
   viewBox="0 0 39.749519 39.749695"
   version="1.1"
   id="svg2252"
   inkscape:version="0.92.4 5da689c313, 2019-01-14"
   sodipodi:docname="logo-hollow.svg">
  <defs
     id="defs2246">
    <clipPath
       clipPathUnits="userSpaceOnUse"
       id="clipPath976">
      <path
         d="M 14.173,715.038 H 126.849 V 827.715 H 14.173 Z"
         id="path974"
         inkscape:connector-curvature="0" />
    </clipPath>
  </defs>
  <sodipodi:namedview
     id="base"
     pagecolor="#ffffff"
     bordercolor="#666666"
     borderopacity="1.0"
     inkscape:pageopacity="0.0"
     inkscape:pageshadow="2"
     inkscape:zoom="10.330478"
     inkscape:cx="87.55612"
     inkscape:cy="75.117543"
     inkscape:document-units="mm"
     inkscape:current-layer="layer1"
     showgrid="false"
     fit-margin-top="0"
     fit-margin-left="0"
     fit-margin-right="0"
     fit-margin-bottom="0"
     inkscape:window-width="3000"
     inkscape:window-height="1888"
     inkscape:window-x="0"
     inkscape:window-y="56"
     inkscape:window-maximized="1"
     inkscape:pagecheckerboard="true" />
  <metadata
     id="metadata2249">
    <rdf:RDF>
      <cc:Work
         rdf:about="">
        <dc:format>image/svg+xml</dc:format>
        <dc:type
           rdf:resource="http://purl.org/dc/dcmitype/StillImage" />
        <dc:title></dc:title>
      </cc:Work>
    </rdf:RDF>
  </metadata>
  <g
     inkscape:label="Layer 1"
     inkscape:groupmode="layer"
     id="layer1"
     transform="translate(1.0236001e-8,-257.25031)">
    <path
       d="M 75.115234 -0.001953125 C 33.628578 -0.001953125 -8.5265128e-14 33.630523 0 75.117188 C -9.4739022e-15 116.60385 33.628578 150.23437 75.115234 150.23438 C 116.60457 150.23438 150.23633 116.60385 150.23633 75.117188 C 150.23633 33.630523 116.60457 -0.001953125 75.115234 -0.001953125 z M 132.75195 41.443359 C 135.11941 41.539292 136.90331 43.311107 136.94531 45.800781 L 136.94922 45.800781 L 136.94531 46.453125 L 131.69531 47.330078 L 131.6875 47.333984 L 131.6875 46.855469 C 131.65683 44.754127 131.71547 43.654608 129.99414 43.966797 C 129.13948 44.122816 128.56641 44.765783 128.56641 46.732422 C 128.56641 46.732422 128.59853 65.436646 128.56641 65.917969 L 128.56641 65.921875 C 128.44774 67.645869 127.40956 71.596025 120.60156 71.966797 C 129.18156 72.477449 128.57586 78.835697 128.56641 78.898438 L 128.56641 80.814453 C 128.56641 85.714573 131.40039 86.041016 131.40039 86.041016 C 123.53372 86.041016 123.30664 81.917969 123.30664 81.917969 C 123.30664 81.917969 123.2837 76.550106 123.26367 76.308594 C 123.149 75.27391 122.56755 72.736328 119.57422 72.736328 L 119.57422 71.285156 C 122.56889 71.285156 123.15032 68.742307 123.26367 67.708984 C 123.28367 67.470307 123.31055 47.609375 123.31055 47.609375 L 123.30664 47.611328 C 123.30664 47.611328 123.23108 42.928943 130.81641 41.654297 C 130.81641 41.654297 131.68945 41.508505 131.68945 41.505859 C 131.69474 41.505859 131.69979 41.507686 131.70508 41.503906 L 131.70508 41.505859 C 132.06374 41.448359 132.41374 41.429655 132.75195 41.443359 z M 115.82031 42.658203 L 115.82031 47.414062 L 110.55664 48.191406 L 110.55664 43.625 L 115.82031 42.658203 z M 36.990234 46.628906 C 40.27587 46.614413 43.956477 48.878762 44.021484 52.15625 C 44.14015 58.193592 35.320109 59.417664 30.912109 59.757812 C 27.021443 60.059154 23.097682 59.392129 19.291016 60.550781 C 17.253682 61.170775 15.006526 62.506941 14.255859 64.626953 C 13.413193 67.006959 15.358354 68.769625 17.679688 68.597656 C 15.745021 67.089625 17.424155 64.449781 19.382812 64.09375 C 21.290813 63.747092 22.836168 65.033755 22.853516 66.955078 C 22.912182 73.159135 12.513037 71.997191 11.095703 67.117188 C 11.277037 67.741179 10.907702 66.499839 11.095703 67.117188 C 9.8383709 62.981175 13.919155 60.419549 17.257812 59.380859 C 20.025812 58.519543 22.969948 58.130226 25.863281 58.111328 C 28.239281 58.096588 30.626948 58.23898 32.988281 57.933594 C 35.640281 57.590904 38.466934 56.680591 40.072266 54.392578 C 41.817599 51.90323 40.260421 49.140473 37.232422 49.333984 C 39.508424 51.11932 36.927875 54.085963 34.671875 53.888672 C 32.427873 53.693988 31.532427 51.357302 32.371094 49.390625 C 33.190594 47.46763 35.018853 46.637602 36.990234 46.628906 z M 115.82031 50.121094 L 115.82031 79.931641 C 115.84965 82.470311 115.7046 84.007997 118.94727 82.916016 L 118.94727 85.673828 C 117.73393 86.009904 115.80803 86.234967 115.80273 86.236328 L 115.80078 86.236328 C 114.70078 86.364303 113.69218 86.238703 112.85352 85.802734 C 112.33885 85.484045 110.5918 84.203654 110.5918 81.402344 C 110.5918 81.402344 110.06255 84.225395 108.31055 86.248047 L 108.29883 86.251953 L 108.29883 86.259766 C 107.59483 87.074405 106.68387 87.742057 105.5332 88.052734 C 104.8092 88.229994 104.52135 88.252967 103.60938 88.283203 C 100.99071 88.443228 98.942428 86.625668 98.898438 83.958984 L 98.873047 68.900391 L 102.8457 67.068359 C 100.37503 67.072366 98.483347 65.274201 98.443359 62.712891 L 98.4375 62.712891 L 98.4375 58.074219 L 98.443359 58.074219 C 98.490029 55.2062 100.82055 52.512873 103.69922 52.019531 L 103.69922 57.193359 L 103.69922 60.380859 C 103.81922 63.116859 104.9833 65.112447 107.7793 64.648438 L 108.29297 64.564453 L 108.29297 66.236328 L 104.13477 69.289062 L 104.13477 81.517578 L 104.14453 81.517578 C 104.2192 84.352224 103.86514 85.782104 106.73047 85.300781 C 109.65314 84.164769 110.56055 78.607422 110.56055 78.607422 L 110.56055 51.001953 L 115.82031 50.121094 z M 91.214844 54.083984 C 93.556527 54.165372 95.379875 55.964642 95.421875 58.453125 L 95.425781 58.451172 L 95.425781 58.541016 L 95.414062 84.373047 C 95.355397 85.802389 94.731673 87.177282 93.763672 88.251953 C 92.657007 89.614624 90.654829 90.990587 87.298828 90.058594 L 87.298828 90.035156 C 87.546829 90.085802 90.164062 89.517629 90.164062 84.988281 L 90.162109 60.171875 C 90.115444 56.550558 88.001261 57.072999 87.058594 57.486328 C 85.657262 58.124993 85.111636 60.314237 85.074219 61.351562 L 85.050781 91.191406 L 79.794922 92.074219 L 79.794922 62.28125 C 79.758922 59.777275 79.910375 58.538403 77.234375 58.982422 L 76.578125 59.103516 L 76.578125 56.162109 C 80.758124 55.002097 82.744736 56.102296 83.552734 56.847656 C 83.567403 56.862321 84.27966 57.575784 84.402344 58.121094 C 84.402344 58.121094 85.198261 55.181598 90.183594 54.15625 C 90.535594 54.094752 90.880318 54.072358 91.214844 54.083984 z M 73.859375 56.722656 L 73.859375 86.515625 C 73.895375 89.0196 73.745875 90.256519 76.421875 89.8125 L 77.076172 89.691406 L 77.076172 92.634766 C 72.896173 93.794778 70.909561 92.694579 70.101562 91.949219 C 70.086899 91.934554 69.37659 91.219138 69.253906 90.673828 C 69.253906 90.673828 68.456036 93.615277 63.470703 94.640625 C 60.654702 95.132606 58.280422 93.187731 58.232422 90.34375 L 58.228516 90.345703 L 58.228516 90.255859 L 58.242188 64.421875 C 58.299518 62.992533 58.922624 61.61764 59.890625 60.542969 C 60.99729 59.178975 62.999467 57.806288 66.355469 58.738281 L 66.355469 58.761719 C 66.107467 58.711073 63.490234 59.279246 63.490234 63.808594 L 63.494141 88.625 C 63.540806 92.246317 65.653036 91.721923 66.595703 91.308594 C 67.997035 90.669929 68.544614 88.480689 68.582031 87.443359 L 68.603516 57.605469 L 73.859375 56.722656 z M 50.044922 60.511719 C 52.66359 60.351694 54.713826 62.171207 54.757812 64.837891 L 54.78125 79.894531 L 50.810547 81.726562 C 53.281213 81.723924 55.172903 83.521314 55.212891 86.083984 L 55.216797 86.083984 L 55.216797 90.722656 L 55.212891 90.722656 C 55.166225 93.590675 52.835697 96.284002 49.957031 96.777344 L 49.957031 91.603516 L 49.957031 88.416016 C 49.837031 85.680016 48.671 83.682472 45.875 84.146484 L 45.359375 84.232422 L 45.359375 82.558594 L 49.519531 79.507812 L 49.519531 67.277344 L 49.511719 67.279297 C 49.437054 64.444651 49.789164 63.014771 46.923828 63.496094 C 44.001161 64.632106 43.095703 70.189453 43.095703 70.189453 L 43.095703 97.792969 L 37.833984 98.675781 L 37.833984 68.865234 C 37.804651 66.326564 37.951651 64.788878 34.708984 65.880859 L 34.708984 63.123047 C 35.922318 62.786971 37.847412 62.561908 37.851562 62.560547 L 37.855469 62.560547 C 38.95547 62.432572 39.962115 62.556219 40.800781 62.992188 C 41.315447 63.31087 43.0625 64.593221 43.0625 67.394531 C 43.0625 67.394531 43.59175 64.569527 45.34375 62.546875 L 45.355469 62.542969 L 45.355469 62.537109 C 46.059466 61.72247 46.970428 61.052858 48.121094 60.742188 C 48.846427 60.564928 49.132922 60.541955 50.044922 60.511719 z M 22.253906 62.755859 C 30.121907 62.755859 30.347656 66.876953 30.347656 66.876953 C 30.347656 66.876953 30.370631 72.246769 30.390625 72.488281 C 30.505292 73.522965 31.088698 76.060547 34.082031 76.060547 L 34.082031 77.511719 C 31.087365 77.511719 30.503958 80.052615 30.390625 81.085938 C 30.370616 81.324607 30.345703 101.1875 30.345703 101.1875 L 30.347656 101.18359 C 30.347656 101.18359 30.423224 105.86606 22.837891 107.14062 C 22.837891 107.14062 21.964844 107.28642 21.964844 107.28906 C 21.959515 107.28906 21.956501 107.28919 21.951172 107.29297 L 21.951172 107.28906 C 19.081839 107.74907 16.758929 105.84144 16.710938 102.99609 L 16.707031 102.99609 L 16.710938 102.3418 L 21.960938 101.46484 L 21.96875 101.46289 L 21.96875 101.93945 C 21.999417 104.04212 21.938823 105.14227 23.660156 104.83008 C 24.514823 104.67406 25.085937 104.03109 25.085938 102.06445 C 25.085938 102.06445 25.053925 83.360229 25.085938 82.878906 L 25.085938 82.875 C 25.20593 81.151006 26.244735 77.20085 33.052734 76.830078 C 24.472735 76.319426 25.077925 69.96117 25.085938 69.898438 L 25.085938 67.982422 C 25.085937 63.082302 22.253906 62.755859 22.253906 62.755859 z M 136.12695 77.603516 C 138.89679 77.728675 141.84993 79.239681 142.55859 81.679688 C 142.37725 81.055687 142.74659 82.297036 142.55859 81.679688 C 143.81593 85.8157 139.7371 88.377326 136.39844 89.416016 C 133.63044 90.277332 130.6863 90.666649 127.79297 90.685547 C 125.41697 90.700287 123.02735 90.557895 120.66602 90.863281 C 118.01402 91.205971 115.18736 92.116284 113.58203 94.404297 C 111.8367 96.893645 113.39583 99.654449 116.42383 99.460938 C 114.14783 97.675602 116.72642 94.710912 118.98242 94.908203 C 121.22642 95.102887 122.12382 97.439573 121.28516 99.40625 C 119.09982 104.53424 109.73683 101.88265 109.63281 96.638672 C 109.51415 90.60133 118.33419 89.377267 122.74219 89.037109 C 126.63286 88.735768 130.55857 89.404746 134.36523 88.246094 C 136.40257 87.6261 138.64777 86.289934 139.39844 84.169922 C 140.2411 81.789916 138.29594 80.025297 135.97461 80.197266 C 137.90928 81.705297 136.23015 84.34514 134.27148 84.701172 C 132.36348 85.04783 130.81817 83.761167 130.80078 81.839844 C 130.77145 78.737815 133.35712 77.478357 136.12695 77.603516 z M 43.099609 100.60352 L 43.099609 105.16992 L 37.835938 106.13867 L 37.835938 101.38281 L 43.099609 100.60352 z "
       transform="matrix(0.26458333,0,0,0.26458333,-1.0236001e-8,257.25031)"
       id="path980" />
  </g>
</svg>
